<?xml version="1.0" standalone="no"?>
<!DOCTYPE svg PUBLIC "-//W3C//DTD SVG 20010904//EN"
 "http://www.w3.org/TR/2001/REC-SVG-20010904/DTD/svg10.dtd">
<svg version="1.0" xmlns="http://www.w3.org/2000/svg"
 width="400.000000pt" height="400.000000pt" viewBox="0 0 400.000000 400.000000"
 preserveAspectRatio="xMidYMid meet">
<metadata>
Created by potrace 1.11, written by Peter Selinger 2001-2013
</metadata>
<g transform="translate(0.000000,400.000000) scale(0.100000,-0.100000)"
fill="#000000" stroke="none">
<path d="M0 2000 l0 -2000 2000 0 2000 0 0 2000 0 2000 -2000 0 -2000 0 0
-2000z m2295 1415 c222 -39 431 -131 563 -247 19 -16 37 -28 41 -26 3 2 66 67
140 146 73 78 136 142 140 142 3 -1 30 -23 59 -49 l54 -49 -139 -152 c-76 -83
-139 -155 -141 -160 -2 -4 19 -41 46 -82 128 -190 202 -394 232 -641 16 -128
8 -451 -14 -572 -58 -315 -176 -546 -385 -756 -183 -183 -356 -279 -601 -334
-101 -22 -393 -31 -513 -16 -251 33 -455 120 -625 265 -30 25 -57 46 -62 46
-5 0 -76 -70 -158 -156 l-149 -156 -59 56 -59 55 158 158 c86 88 157 164 157
169 0 5 -18 36 -41 69 -93 137 -161 300 -202 485 -105 471 -29 948 208 1305
190 287 466 460 815 511 121 17 411 12 535 -11z"/>
<path d="M1824 3109 c-262 -44 -498 -214 -624 -451 -151 -282 -184 -784 -74
-1123 31 -94 94 -217 110 -213 14 4 1408 1526 1412 1542 3 12 -97 91 -173 138
-63 39 -172 79 -270 99 -96 20 -286 24 -381 8z"/>
<path d="M2045 1970 c-385 -424 -701 -775 -703 -780 -5 -15 138 -126 217 -168
100 -53 199 -80 345 -92 214 -17 368 8 526 87 158 79 291 224 380 416 133 285
165 668 84 987 -23 89 -125 320 -142 320 -4 0 -322 -347 -707 -770z"/>
</g>
</svg>
